<?xml version="1.0" encoding="UTF-8" standalone="no"?>
<!-- Created with Inkscape (http://www.inkscape.org/) -->

<svg
   width="36.762634mm"
   height="17.955387mm"
   viewBox="0 0 36.762634 17.955387"
   version="1.1"
   id="svg1"
   sodipodi:docname="Cowboyhat4.svg"
   inkscape:version="1.3.2 (091e20e, 2023-11-25)"
   xmlns:inkscape="http://www.inkscape.org/namespaces/inkscape"
   xmlns:sodipodi="http://sodipodi.sourceforge.net/DTD/sodipodi-0.dtd"
   xmlns="http://www.w3.org/2000/svg"
   xmlns:svg="http://www.w3.org/2000/svg">
  <sodipodi:namedview
     id="namedview1"
     pagecolor="#ffffff"
     bordercolor="#000000"
     borderopacity="0.25"
     inkscape:showpageshadow="2"
     inkscape:pageopacity="0.0"
     inkscape:pagecheckerboard="0"
     inkscape:deskcolor="#d1d1d1"
     inkscape:document-units="mm"
     inkscape:zoom="2.0700872"
     inkscape:cx="32.607322"
     inkscape:cy="97.097359"
     inkscape:window-width="1096"
     inkscape:window-height="733"
     inkscape:window-x="374"
     inkscape:window-y="37"
     inkscape:window-maximized="0"
     inkscape:current-layer="svg1" />
  <defs
     id="defs1" />
  <g
     id="g1"
     transform="translate(0,0.38343795)">
    <g
       id="layer3"
       transform="translate(-3.7713722,-5.6059998)">
      <g
         id="path6"
         style="stroke:#000000;stroke-width:0.4;stroke-dasharray:none;stroke-opacity:1"
         transform="translate(-11.121929,-22.491012)">
        <path
           style="color:#000000;fill:#c87137;stroke:#000000;stroke-width:0.4;stroke-dasharray:none;stroke-opacity:1"
           d="M 28.222496,37.379588 21.91216,37.04234 a 4.6559562,4.6559562 14.874169 0 1 -1.842745,-0.489427 l -2.673189,-1.343839 c -0.888569,-0.446693 -1.87333,-0.04407 -2.082892,0.927747 -0.840552,3.897971 0.260359,7.506075 11.763068,6.132478 L 38.304299,39.53023 h -0.67212"
           id="path10" />
      </g>
    </g>
    <g
       id="layer2"
       transform="translate(-3.7713722,-5.6059998)">
      <rect
         style="fill:#502d16;stroke:#000000;stroke-width:0.365;stroke-dasharray:none;stroke-opacity:1"
         id="rect6"
         width="19.560766"
         height="0.8082478"
         x="13.356592"
         y="16.341488" />
    </g>
    <g
       id="layer1"
       transform="translate(-3.7713722,-5.6059998)">
      <path
         style="fill:#c87137;stroke-width:0.264583"
         d="M 19.244501,23.561386 18.641193,10.087541"
         id="path1" />
      <path
         style="fill:#c87137;stroke:#000000;stroke-width:0.365;stroke-dasharray:none;stroke-opacity:1"
         d="M 24.478394,38.834826 25.8705,30.647472 a 1.9052219,1.9052219 143.44519 0 1 2.118391,-1.570665 l 6.802327,0.864229 7.034517,-1.622557 a 1.5127703,1.5127703 37.382617 0 1 1.85161,1.414774 l 0.364032,9.280566 z"
         id="path2"
         transform="translate(-11.121929,-22.491012)" />
    </g>
    <g
       id="layer4"
       transform="translate(-3.7713722,-5.6059998)">
      <circle
         id="path8"
         style="fill:#c87137;stroke:#000000;stroke-width:0.264583"
         cx="16.564878"
         cy="19.831581"
         r="0.012417023" />
      <g
         id="path9"
         transform="translate(-10.760584,-22.762021)">
        <path
           style="color:#000000;fill:#c87137;stroke:#000000;stroke-width:0.3;stroke-dasharray:none;stroke-opacity:1"
           d="m 26.737454,42.525318 6.952309,-1.183317 c 0.989927,-0.168491 2.006933,-0.06819 2.944874,0.290432 l 0.852517,0.325961 c 1.688757,0.645697 3.464801,1.031142 5.267382,1.144007 0.269064,0.01685 0.705974,0.03155 0.975407,0.04104 l 1.14626,0.0404 a 6.0015626,6.0015626 172.92197 0 0 1.883176,-0.233829 l 1.49456,-0.433485 c 0.761022,-0.220729 1.98999,-0.746268 2.298421,-1.455916 0.191074,-0.439631 0.319268,-0.950896 0.463215,-1.446791 0.23456,-0.808057 0.202483,-2.041022 -0.559646,-2.370759 -1.446014,-0.625622 -3.789544,-0.494077 -6.110509,-0.245873 -0.440969,0.04716 -1.155279,0.130091 -1.596606,0.17439 -1.416862,0.142219 -3.200228,0.291861 -5.027491,0.609913 -0.435316,0.07577 -1.139268,0.216886 -1.571119,0.318005 -1.904917,0.446041 -3.757185,1.125481 -5.190522,2.221099 -0.352266,0.269265 -0.938335,0.671111 -1.340218,0.858795 z"
           id="path36" />
      </g>
    </g>
    <g
       id="layer5"
       transform="translate(-3.7713722,-5.6059998)">
      <path
         style="fill:none;stroke:#000000;stroke-width:0.365001;stroke-dasharray:none;stroke-opacity:1"
         d="M 24.078869,18.475901 C 34.939772,14.494417 34.890025,17.754055 34.878888,17.754925"
         id="path34" />
      <ellipse
         style="fill:none;stroke:#000000;stroke-width:0.249554;stroke-dasharray:none;stroke-opacity:1"
         id="path43"
         cx="34.863956"
         cy="17.661285"
         rx="0.059928246"
         ry="0.15825115" />
    </g>
  </g>
</svg>
